PathFileType	4	(X/Y/Z)	C:/Users/dbak576/Desktop/Duncan Bakke Modelling Files/H20s1/Static_H20s1.trc	
DataRate	CameraRate	NumFrames	NumMarkers	Units	OrigDataRate	OrigDataStartFrame	OrigNumFrames	
200.00	200.00	5	61	mm	200.00	549	672	
Frame#	Time	LFHD			RFHD			LBHD			RBHD			C7			T10			CLAV			STRN			RBack			LASI			RASI			LPSI			RPSI			RACR1			RUA1			RElbow			RElbowM			RFA1			RWRR			RWRU			RCAR			LACR1			LUA1			LElbow			LElbowM			LFA1			LWRR			LWRU			LCAR			RTH1			RTH3			RTH2			RTH4			RLFC			RMFC			RTB1			RTB3			RTB2			RTB4			RLMAL			RMMAL			RCAL			RMT1			RMT5			RToe			LTH1			LTH3			LTH2			LTH4			LLFC			LMFC			LTB1			LTB3			LTB2			LTB4			LLMAL			LMMAL			LCAL			LMT1			LMT5			LToe			
		X1	Y1	Z1	X2	Y2	Z2	X3	Y3	Z3	X4	Y4	Z4	X5	Y5	Z5	X6	Y6	Z6	X7	Y7	Z7	X8	Y8	Z8	X9	Y9	Z9	X10	Y10	Z10	X11	Y11	Z11	X12	Y12	Z12	X13	Y13	Z13	X14	Y14	Z14	X15	Y15	Z15	X16	Y16	Z16	X17	Y17	Z17	X18	Y18	Z18	X19	Y19	Z19	X20	Y20	Z20	X21	Y21	Z21	X22	Y22	Z22	X23	Y23	Z23	X24	Y24	Z24	X25	Y25	Z25	X26	Y26	Z26	X27	Y27	Z27	X28	Y28	Z28	X29	Y29	Z29	X30	Y30	Z30	X31	Y31	Z31	X32	Y32	Z32	X33	Y33	Z33	X34	Y34	Z34	X35	Y35	Z35	X36	Y36	Z36	X37	Y37	Z37	X38	Y38	Z38	X39	Y39	Z39	X40	Y40	Z40	X41	Y41	Z41	X42	Y42	Z42	X43	Y43	Z43	X44	Y44	Z44	X45	Y45	Z45	X46	Y46	Z46	X47	Y47	Z47	X48	Y48	Z48	X49	Y49	Z49	X50	Y50	Z50	X51	Y51	Z51	X52	Y52	Z52	X53	Y53	Z53	X54	Y54	Z54	X55	Y55	Z55	X56	Y56	Z56	X57	Y57	Z57	X58	Y58	Z58	X59	Y59	Z59	X60	Y60	Z60	X61	Y61	Z61	

169	0.840	-25.18833	-335.87073	1650.61133	55.78725	-340.00961	1655.79468	-58.86470	-511.28650	1600.70593	79.24184	-519.32428	1599.66187	8.98882	-526.35382	1455.50830	-8.98809	-555.59412	1135.10693	1.39735	-374.23361	1400.72021	-4.09745	-337.22089	1237.30408	90.45645	-588.24042	1354.95703	-158.83081	-356.94699	966.15613	146.26282	-365.58667	959.54669	-69.28593	-534.47955	977.40173	33.95717	-544.69244	976.97803	120.57554	-491.26364	1458.72412	290.68051	-478.64264	1414.71399	412.97180	-446.50128	1392.53967	395.89090	-379.97336	1335.95386	540.48499	-398.36572	1440.03235	647.98761	-305.22745	1496.36353	658.48682	-326.38721	1422.55273	714.08771	-313.01907	1467.05212	-132.41698	-497.54617	1465.09839	-311.77026	-478.28632	1415.76794	-426.43539	-442.30981	1390.39221	-394.64661	-403.77090	1331.05945	-554.60834	-388.60001	1466.78223	-638.00488	-305.17328	1508.05481	-657.03064	-310.84720	1431.13379	-709.12866	-314.62714	1493.34924	202.95416	-439.88837	764.82471	200.36234	-442.51828	575.51373	185.06442	-371.24442	671.46967	204.90221	-440.78751	667.91962	196.58476	-447.64630	471.66626	65.50543	-462.58884	439.05344	132.58829	-412.08130	369.13879	155.45615	-440.49631	182.11728	215.59250	-445.84671	287.09067	146.06125	-423.65598	278.22351	199.51010	-512.81921	88.52771	115.74960	-476.44446	92.36320	159.68532	-558.94714	35.11094	140.66626	-352.02621	38.62074	227.06458	-389.36288	33.57403	167.31879	-295.32782	26.07376	-210.64104	-407.04459	769.80328	-207.63251	-428.22012	583.20575	-175.23096	-351.27719	664.82532	-214.20987	-418.40042	672.37598	-204.13705	-451.26480	469.19452	-79.05309	-472.72995	435.38657	-160.19250	-419.57669	370.78806	-170.68314	-463.02924	190.09138	-228.50037	-475.80127	292.08633	-165.17661	-442.69623	280.61850	-204.42232	-547.31396	79.99097	-120.13138	-509.44278	85.82438	-160.17929	-593.85120	32.98501	-143.50955	-379.50482	35.90067	-233.07664	-413.14859	31.97967	-160.27982	-332.93909	26.81581 
170	0.845	-25.22868	-335.91821	1650.62036	55.81437	-340.10010	1655.80444	-58.91357	-511.35748	1600.70874	79.25594	-519.34680	1599.63440	8.94884	-526.45837	1455.52722	-8.95818	-555.60370	1135.08606	1.40935	-374.21457	1400.77405	-4.06637	-337.27164	1237.29895	90.47304	-588.26233	1354.94592	-158.83333	-356.98297	966.16132	146.24837	-365.58197	959.53174	-69.26519	-534.50848	977.41089	33.95929	-544.71484	976.96448	120.58511	-491.30856	1458.71313	290.67169	-478.69724	1414.71497	412.98083	-446.55298	1392.49829	395.93927	-380.05423	1335.95056	540.49841	-398.41663	1440.01086	647.98834	-305.29166	1496.35107	658.45996	-326.44476	1422.53650	714.09528	-313.05637	1467.08447	-132.40610	-497.58423	1465.07813	-311.78253	-478.33197	1415.71423	-426.46597	-442.36063	1390.38672	-394.59818	-403.76804	1331.04187	-554.60718	-388.64252	1466.81238	-638.01733	-305.18295	1508.05579	-657.03326	-310.86670	1431.10962	-709.12561	-314.62659	1493.34045	202.94846	-439.94305	764.82056	200.42447	-442.58188	575.46484	185.05795	-371.28009	671.43964	204.81352	-440.79855	668.00348	196.57066	-447.64511	471.64658	65.48858	-462.62497	439.04678	132.58939	-412.07397	369.14233	155.46423	-440.52298	182.14021	215.73854	-445.81717	287.09497	146.05803	-423.67822	278.23038	199.50706	-512.81146	88.51322	115.89542	-476.39658	92.33482	159.69479	-558.94330	35.10728	140.65498	-352.03641	38.59822	227.05865	-389.36133	33.54607	167.32683	-295.35605	26.04398	-210.65337	-407.07648	769.79083	-207.65350	-428.22955	583.20807	-175.21692	-351.29788	664.85419	-214.20694	-418.39957	672.34772	-204.11011	-451.28290	469.19604	-79.03521	-472.75507	435.36258	-160.16905	-419.58301	370.78677	-170.67877	-463.03635	190.09738	-228.46707	-475.81058	292.04913	-165.14088	-442.68668	280.63516	-204.33595	-547.30859	80.00076	-120.14386	-509.43842	85.82964	-160.18361	-593.83990	32.98448	-143.53593	-379.49274	35.90308	-233.03426	-413.15198	32.00033	-160.28391	-332.94141	26.81604 
171	0.850	-25.23643	-335.99792	1650.66821	55.80916	-340.15555	1655.71863	-58.93864	-511.43558	1600.70813	79.28828	-519.40021	1599.63904	8.93419	-526.51233	1455.53430	-8.95180	-555.64441	1135.06311	1.42550	-374.22806	1400.79187	-4.05413	-337.32938	1237.30603	90.47705	-588.26770	1354.95300	-158.84457	-357.02405	966.16418	146.25677	-365.58820	959.52985	-69.27310	-534.55280	977.39606	33.95438	-544.71387	976.95160	120.59479	-491.36639	1458.72351	290.66431	-478.73956	1414.68579	413.00436	-446.61023	1392.48999	395.95599	-380.15338	1335.93469	540.48798	-398.47952	1439.98645	648.00842	-305.32806	1496.35034	658.44904	-326.47015	1422.53235	714.09991	-313.06961	1467.08716	-132.42053	-497.62662	1465.08105	-311.78113	-478.35617	1415.72717	-426.48471	-442.42023	1390.34668	-394.61606	-403.79111	1331.02783	-554.58453	-388.65881	1466.80493	-638.00879	-305.18823	1508.03381	-657.02911	-310.88785	1431.11462	-709.11938	-314.67346	1493.33350	202.95108	-439.98230	764.80469	200.49295	-442.64651	575.40424	185.06160	-371.34161	671.44879	204.86618	-440.82816	668.23090	196.53072	-447.63049	471.64340	65.49648	-462.65228	439.03543	132.58978	-412.07364	369.14056	155.45232	-440.54950	182.14922	215.66995	-445.87366	287.11444	146.02742	-423.69229	278.25751	199.51109	-512.80884	88.50601	115.63448	-476.46991	92.40264	159.70108	-558.94672	35.10457	140.66919	-352.03754	38.60862	227.03149	-389.35294	33.55151	167.31767	-295.37634	26.06269	-210.64622	-407.12543	769.83344	-207.69191	-428.29767	583.27313	-175.20534	-351.30920	664.87390	-214.20395	-418.39465	672.37305	-204.09425	-451.33746	469.19772	-79.00790	-472.79266	435.37543	-160.14159	-419.62473	370.78812	-170.65564	-463.06662	190.09213	-228.44748	-475.82297	292.06464	-165.13058	-442.69980	280.64435	-204.38718	-547.29395	79.93940	-120.13062	-509.42395	85.80997	-160.15155	-593.78082	33.00416	-143.60201	-379.53070	35.91998	-233.08673	-413.20139	32.00563	-160.28883	-332.94556	26.81487 
172	0.855	-25.23440	-336.04596	1650.68616	55.91235	-340.21130	1655.88867	-58.98609	-511.51706	1600.70422	79.27581	-519.43658	1599.63623	8.94803	-526.50708	1455.51062	-8.96250	-555.67700	1135.04602	1.43077	-374.31171	1400.78442	-4.04162	-337.37012	1237.32642	90.48214	-588.30878	1354.96240	-158.83388	-357.05499	966.16998	146.28217	-365.60999	959.53723	-69.26917	-534.58130	977.36804	33.98602	-544.75641	976.93152	120.58385	-491.43231	1458.73145	290.64865	-478.75342	1414.65662	413.00912	-446.64877	1392.44617	395.96521	-380.24304	1335.89819	540.48145	-398.51825	1439.97083	647.99420	-305.36667	1496.34009	658.43665	-326.52451	1422.51721	714.16486	-313.05539	1467.16479	-132.39502	-497.65854	1465.08276	-311.82504	-478.39810	1415.72534	-426.45151	-442.45078	1390.33582	-394.63541	-403.81232	1331.01135	-554.59711	-388.70361	1466.81262	-637.98669	-305.18683	1508.04150	-657.00323	-310.94794	1431.11633	-709.11169	-314.70078	1493.32129	202.95663	-440.02512	764.80676	200.53186	-442.68283	575.39185	185.06206	-371.37900	671.42529	204.95551	-440.87555	668.43542	196.53467	-447.64609	471.67084	65.60097	-462.56708	439.05423	132.60695	-412.08536	369.16125	155.44777	-440.54980	182.14673	215.68909	-445.92035	287.11844	146.00497	-423.68958	278.26367	199.51521	-512.81335	88.49529	115.74461	-476.43777	92.37503	159.70264	-558.94781	35.11508	140.66676	-352.03809	38.62001	227.01910	-389.38303	33.54731	167.31546	-295.41406	26.05615	-210.64571	-407.14764	769.81964	-207.65239	-428.33276	583.25787	-175.18686	-351.36160	664.85736	-214.19171	-418.39807	672.38647	-204.08119	-451.36603	469.20905	-79.00514	-472.83713	435.40182	-160.14116	-419.66730	370.78372	-170.65620	-463.11417	190.06670	-228.46236	-475.84885	292.09390	-165.14757	-442.73831	280.65802	-204.36690	-547.31396	79.95040	-120.12337	-509.42606	85.81977	-160.17012	-593.82880	32.95691	-143.60091	-379.56558	35.96123	-233.05351	-413.17270	32.01708	-160.30705	-332.94540	26.79971 
173	0.860	-25.24418	-336.09543	1650.69714	55.92346	-340.31564	1655.91626	-59.00166	-511.62308	1600.67725	79.27517	-519.46704	1599.64282	8.96607	-526.55054	1455.49841	-8.97566	-555.68976	1135.04407	1.42985	-374.37167	1400.76990	-4.05116	-337.39911	1237.32886	90.48534	-588.35376	1354.95520	-158.83195	-357.09628	966.16882	146.27359	-365.63879	959.54364	-69.23378	-534.59808	977.35291	33.98668	-544.79926	976.92883	120.58720	-491.50046	1458.72681	290.68063	-478.78940	1414.59998	413.00684	-446.71509	1392.42932	395.93863	-380.29605	1335.87939	540.49823	-398.56857	1439.93433	648.01862	-305.41867	1496.32129	658.43921	-326.58630	1422.50342	714.26227	-313.12646	1467.16577	-132.41841	-497.72226	1465.05786	-311.78693	-478.43246	1415.77783	-426.43948	-442.45996	1390.32910	-394.60870	-403.83774	1331.01953	-554.57770	-388.72156	1466.79126	-638.00311	-305.21725	1508.02783	-657.04340	-311.11783	1431.21460	-709.10669	-314.70267	1493.31628	202.95593	-440.10013	764.82336	200.53954	-442.68604	575.40814	185.05795	-371.38522	671.44470	205.03262	-440.93460	668.47748	196.55400	-447.42850	471.80002	65.57854	-462.54761	439.01437	132.59908	-412.11932	369.14340	155.44637	-440.54385	182.13388	215.73328	-445.93646	287.09888	146.09250	-423.87415	278.17560	199.51649	-512.81366	88.50230	115.57853	-476.48215	92.43573	159.70219	-558.95203	35.11380	140.66449	-352.04114	38.61659	227.01573	-389.38040	33.56230	167.31215	-295.41077	26.07836	-210.67427	-407.16605	769.76819	-207.62314	-428.34296	583.22992	-175.19313	-351.39212	664.84344	-214.22511	-418.45163	672.40057	-204.06235	-451.37042	469.21750	-79.00992	-472.88931	435.40723	-160.14438	-419.68137	370.78146	-170.65149	-463.14124	190.07878	-228.47658	-475.87811	292.11191	-165.15479	-442.76605	280.66229	-204.42294	-547.32690	79.93156	-120.13564	-509.43411	85.83039	-160.14180	-593.78882	32.94345	-143.57632	-379.54565	35.96431	-232.98766	-413.15308	32.05263	-160.30663	-332.94669	26.80432 
